<svg xmlns="http://www.w3.org/2000/svg" viewBox="0 0 256 256">
  <rect width="256" height="256" rx="48" fill="#26333D"/>
  <g transform="translate(53,35.5) scale(0.6415)" fill="#F5F3F0">
    <polygon points="27.3 125.5 133.2 21.7 117 3.9 6.2 114.2 6.2 273.9 116.7 273.9 116.7 252.9 27.3 252.9 27.3 125.5"/>
    <polygon points="205 125.9 205.4 274.3 227.6 274.3 227.6 116.1 152.6 38.4 117.1 74.3 133.9 90.7 150.7 73.2 205 125.9"/>
    <polygon points="171.8 147.4 109.1 85.4 50.1 143.4 49.7 237.8 107.8 237.4 107.8 215.1 71.7 215.4 71.7 153.7 107.4 116.7 149.8 157.7 149.4 284.5 171.1 284.5 171.8 147.4"/>
  </g>
</svg>
