<?xml version="1.0" encoding="UTF-8"?>
<svg xmlns="http://www.w3.org/2000/svg" id="Ebene_1" version="1.1" viewBox="0 0 697.3 292.9">
  <!-- Generator: Adobe Illustrator 30.4.0, SVG Export Plug-In . SVG Version: 2.1.4 Build 226)  -->
  <defs>
    <style>
      .st0, .st1 {
        fill: #2c2c2c;
      }

      .st1 {
        fill-rule: evenodd;
      }
    </style>
  </defs>
  <polygon class="st1" points="27.3 125.5 133.2 21.7 117 3.9 6.2 114.2 6.2 273.9 116.7 273.9 116.7 252.9 27.3 252.9 27.3 125.5"></polygon>
  <polygon class="st1" points="205 125.9 205.4 274.3 227.6 274.3 227.6 116.1 152.6 38.4 117.1 74.3 133.9 90.7 150.7 73.2 205 125.9"></polygon>
  <polygon class="st1" points="171.8 147.4 109.1 85.4 50.1 143.4 49.7 237.8 107.8 237.4 107.8 215.1 71.7 215.4 71.7 153.7 107.4 116.7 149.8 157.7 149.4 284.5 171.1 284.5 171.8 147.4"></polygon>
  <path class="st1" d="M370.5,153.1v15.3c0,6.2-.9,11.5-2.8,16.2s-4.5,8.3-8,10.8c-3.5,2.6-7.5,3.8-12.1,3.8s-8.6-1.2-12.1-3.6c-3.5-2.4-6.2-5.8-8.1-10.2s-2.9-9.5-2.9-15.3v-24.4c0-6.1.9-11.5,2.8-16.2s4.6-8.3,8-10.8c3.5-2.6,7.5-3.8,12-3.8s7.2,1,10.4,3c3.2,2,5.8,4.9,7.9,8.6,2.1,3.7,3.6,8,4.3,12.9h-11.4c-.5-2.3-1.3-4.2-2.5-5.9-1.1-1.6-2.5-2.9-4-3.7-1.6-.9-3.1-1.3-4.8-1.3s-4.5.7-6.3,2.1c-1.8,1.4-3.2,3.4-4.2,6s-1.5,5.6-1.5,9v24.4c0,3.1.5,5.8,1.5,8.1s2.4,4.1,4.3,5.4c1.9,1.3,4,1.9,6.4,1.9s4.5-.7,6.4-2c1.8-1.3,3.2-3.3,4.2-5.9,1-2.6,1.5-5.6,1.5-9.1v-2.5h-11.4v-13h22.4v.2ZM405.8,185.8c2.4,0,4.5-.7,6.4-2.1,1.8-1.4,3.3-3.3,4.3-5.8s1.5-5.4,1.5-8.7v-24.2c0-3.3-.5-6.2-1.5-8.7s-2.4-4.5-4.3-5.8c-1.8-1.4-4-2-6.4-2s-4.5.7-6.4,2c-1.8,1.4-3.2,3.3-4.2,5.8s-1.5,5.4-1.5,8.7v24.2c0,3.3.5,6.2,1.5,8.7s2.4,4.4,4.2,5.8c1.9,1.5,4,2.1,6.4,2.1h0ZM405.8,199.4c-4.6,0-8.6-1.3-12.1-3.8s-6.2-6.1-8.1-10.7c-1.9-4.6-2.9-9.9-2.9-16v-23.4c0-6.1,1-11.4,2.9-16,1.9-4.6,4.6-8.2,8.1-10.7s7.5-3.8,12.1-3.8,8.6,1.3,12.1,3.8,6.2,6.1,8.1,10.7c1.9,4.6,2.8,9.9,2.8,16v23.4c0,6.1-.9,11.4-2.8,16s-4.6,8.2-8.1,10.7c-3.5,2.5-7.5,3.8-12.1,3.8h0ZM462.2,199.4c-3.1,0-6-.4-8.9-1.2s-5.5-1.9-8-3.5c-2.5-1.5-4.8-3.4-6.8-5.6h0l5.6-10.9h0c2.5,2.7,5.3,4.7,8.3,6.1,3.1,1.4,6.3,2.1,9.8,2.1s7.6-1,10-2.9c2.4-2,3.6-4.8,3.6-8.4h0c0-2.6-.5-4.7-1.6-6.2s-2.5-2.6-4.2-3.3-3.9-1.4-6.6-2c-.1,0-.2-.1-.3-.1s-.2,0-.3-.1l-.8-.2c-4.3-.9-7.8-2-10.6-3.2-2.8-1.2-5.1-3.5-7.1-6.7-1.9-3.2-2.9-7.8-2.9-13.7h0c0-5.3.9-9.8,2.7-13.5,1.8-3.7,4.5-6.5,8-8.5,3.5-1.9,7.6-2.9,12.5-2.9s4.6.3,6.9,1,4.6,1.6,6.8,2.9c2.2,1.3,4.4,2.9,6.4,4.8h0l-5.1,11.2h0c-2.5-2.3-5-4-7.5-5.2-2.6-1.2-5.1-1.8-7.5-1.8-4,0-7.2,1-9.4,2.9-2.2,1.9-3.4,4.6-3.4,8.1h0c0,2.7.6,4.8,1.7,6.3,1.2,1.5,2.6,2.6,4.3,3.3,1.7.7,4.1,1.5,7.2,2.2.1,0,.2.1.3.1s.2,0,.3.1c.2,0,.3.1.5.1.2.1.3.1.5.2,4,1,7.3,2.2,10,3.7,2.7,1.4,4.9,3.7,6.7,6.9,1.8,3.2,2.7,7.5,2.7,13.1h0c0,5.3-.9,9.7-2.8,13.3-1.9,3.7-4.6,6.5-8.2,8.4-3.4,2.1-7.7,3.1-12.8,3.1h0ZM598.7,115.9h7.7l24.1,82.7h-11.3l-4.2-15.7h-24.7l-4.2,15.7h-11.4l24-82.7h0ZM280.1,169.8h17.7l-8.9-32.9-8.8,32.9h0ZM301.3,182.8h-24.7l-4.2,15.7h-11.4l24.1-82.7h7.7l24.1,82.7h-11.3l-4.3-15.7h0ZM522.4,115.9h25.7c4.1,0,7.7.9,10.5,2.7,2.9,1.8,5,4.3,6.5,7.7,1.5,3.4,2.2,7.4,2.2,12h0c0,3-.5,5.8-1.4,8.3s-2.3,4.6-4.1,6.2c-1.8,1.7-4,2.8-6.7,3.4,2.7.5,5,1.6,7,3.5,2,1.8,3.4,4.1,4.5,6.9,1,2.8,1.5,5.9,1.5,9.4v.2c0,4.6-.8,8.6-2.3,12s-3.8,6-6.7,7.8-6.3,2.7-10.3,2.7h-26.4v-82.8h0ZM532.9,128.7v21h14.8c2.9,0,5.1-.9,6.7-2.7,1.5-1.8,2.3-4.5,2.3-7.9h0c0-3.4-.8-6-2.4-7.7-1.6-1.8-4-2.7-7.1-2.7h-14.3ZM532.9,162.5v23.1h13.7c3.7,0,6.4-1,8.2-2.9,1.8-2,2.7-4.8,2.7-8.4v-.2c0-2.4-.3-4.5-1.1-6.2-.7-1.7-1.8-3.1-3.3-4s-3.3-1.4-5.5-1.4h-14.7ZM611.3,169.8l-8.9-32.9-8.8,32.9h17.7ZM661.3,199.4c-4.8,0-9-1.2-12.4-3.6-3.4-2.4-6.1-5.9-7.9-10.5-1.8-4.6-2.7-10.1-2.7-16.6v-52.8h10.6v53.1c0,5.4,1.1,9.6,3.2,12.5,2.2,2.9,5.2,4.4,9.2,4.4s7.1-1.5,9.2-4.4c2.2-2.9,3.3-7.1,3.3-12.5v-53.2h10.5v52.8c0,6.5-.9,12-2.7,16.6s-4.4,8.1-7.9,10.5c-3.4,2.5-7.5,3.7-12.4,3.7h0Z"></path>
  <g>
    <path class="st0" d="M267.3,271v-45.7h6.1v45.7h-6.1Z"></path>
    <path class="st0" d="M283.3,271v-45.7h5.6v16.4c2.6-3,5.9-4.6,9.9-4.6s4.6.5,6.4,1.5,3.1,2.3,3.9,4,1.2,4.2,1.2,7.4v21h-5.6v-21c0-2.8-.6-4.9-1.8-6.1s-2.9-1.9-5.2-1.9-3.2.4-4.7,1.3c-1.5.9-2.5,2-3.1,3.5s-.9,3.5-.9,6.1v18.1h-5.7Z"></path>
    <path class="st0" d="M318.8,271v-33.1h5.1v5c1.3-2.3,2.5-3.9,3.6-4.6,1.1-.7,2.3-1.1,3.6-1.1,1.9,0,3.8.6,5.8,1.8l-1.9,5.2c-1.4-.8-2.7-1.2-4.1-1.2s-2.3.4-3.3,1.1-1.7,1.8-2.1,3.1c-.6,2-.9,4.2-.9,6.6v17.2h-5.8Z"></path>
    <path class="st0" d="M358.9,271v-45.7h30.9v5.4h-24.8v14.2h21.5v5.4h-21.5v20.7h-6.1Z"></path>
    <path class="st0" d="M418.5,266.9c-2.1,1.8-4.1,3-6,3.7s-4,1.1-6.2,1.1c-3.6,0-6.4-.9-8.4-2.7-2-1.8-2.9-4-2.9-6.8s.4-3.1,1.1-4.4,1.7-2.4,2.9-3.2c1.2-.8,2.5-1.4,4-1.8,1.1-.3,2.8-.6,5-.8,4.5-.5,7.9-1.2,10-1.9v-1.5c0-2.3-.5-3.9-1.6-4.8-1.4-1.3-3.6-1.9-6.4-1.9s-4.6.5-5.8,1.4c-1.3.9-2.2,2.6-2.8,4.9l-5.5-.7c.5-2.3,1.3-4.2,2.5-5.7,1.1-1.4,2.8-2.6,5-3.3,2.2-.8,4.7-1.2,7.5-1.2s5.1.3,6.9,1,3.1,1.5,3.9,2.5,1.4,2.3,1.7,3.8.3,2.7.3,5.2v7.5c0,5.2.1,8.5.4,9.9.2,1.4.7,2.7,1.4,4h-5.9c-.6-1.4-1-2.7-1.1-4.3ZM418,254.4c-2,.8-5.1,1.5-9.2,2.1-2.3.3-3.9.7-4.9,1.1s-1.7,1-2.2,1.8-.8,1.7-.8,2.7c0,1.5.6,2.7,1.7,3.7s2.8,1.5,5,1.5,4.1-.5,5.8-1.4c1.7-.9,2.9-2.2,3.7-3.9.6-1.3.9-3.1.9-5.6v-2Z"></path>
    <path class="st0" d="M454,258.9l5.5.7c-.6,3.8-2.1,6.8-4.6,8.9-2.5,2.2-5.5,3.2-9.2,3.2s-8.2-1.5-10.9-4.4c-2.8-3-4.1-7.2-4.1-12.7s.6-6.7,1.8-9.4,3-4.7,5.4-6,5.1-2,7.9-2,6.5.9,8.8,2.7,3.8,4.4,4.4,7.8l-5.5.8c-.5-2.2-1.4-3.9-2.8-5s-2.9-1.7-4.8-1.7c-2.8,0-5.1,1-6.9,3s-2.7,5.2-2.7,9.6.9,7.7,2.6,9.7,3.9,3,6.7,3,4-.7,5.5-2,2.5-3.4,2.9-6.2Z"></path>
    <path class="st0" d="M464.3,271v-45.7h5.6v16.4c2.6-3,5.9-4.6,9.9-4.6s4.6.5,6.4,1.5,3.1,2.3,3.9,4,1.2,4.2,1.2,7.4v21h-5.6v-21c0-2.8-.6-4.9-1.8-6.1s-2.9-1.9-5.2-1.9-3.2.4-4.7,1.3c-1.5.9-2.5,2-3.1,3.5s-.9,3.5-.9,6.1v18.1h-5.7Z"></path>
    <path class="st0" d="M505,271h-5.2v-45.7h5.6v16.3c2.4-3,5.4-4.5,9.1-4.5s4,.4,5.8,1.2,3.3,2,4.5,3.5,2.1,3.3,2.8,5.4c.7,2.1,1,4.3,1,6.7,0,5.7-1.4,10.1-4.2,13.2s-6.2,4.6-10.1,4.6-7-1.6-9.2-4.9v4.2h0ZM505,254.2c0,4,.5,6.8,1.6,8.6,1.8,2.9,4.2,4.3,7.2,4.3s4.6-1.1,6.4-3.2c1.8-2.1,2.7-5.3,2.7-9.5s-.9-7.5-2.6-9.6c-1.7-2.1-3.8-3.1-6.2-3.1s-4.6,1.1-6.4,3.2c-1.8,2.2-2.7,5.2-2.7,9.3Z"></path>
    <path class="st0" d="M558.1,260.3l5.8.7c-.9,3.4-2.6,6-5.1,7.9s-5.6,2.8-9.5,2.8-8.7-1.5-11.5-4.5-4.3-7.2-4.3-12.6,1.4-9.9,4.3-13,6.6-4.6,11.2-4.6,8,1.5,10.9,4.5,4.2,7.3,4.2,12.7v1.5h-24.7c.2,3.6,1.2,6.4,3.1,8.4,1.9,1.9,4.2,2.9,6.9,2.9s3.8-.5,5.3-1.6c1.4-1,2.5-2.7,3.4-5.1ZM539.6,251.3h18.5c-.2-2.8-1-4.9-2.1-6.3-1.8-2.2-4.1-3.2-7-3.2s-4.7.9-6.5,2.6c-1.7,1.7-2.7,4-2.9,6.9Z"></path>
    <path class="st0" d="M583.2,266l.8,5c-1.6.3-3,.5-4.2.5-2,0-3.6-.3-4.7-1s-1.9-1.5-2.4-2.5c-.5-1.1-.7-3.3-.7-6.6v-19.1h-4.1v-4.4h4.1v-8.2l5.6-3.4v11.6h5.6v4.4h-5.6v19.4c0,1.6,0,2.6.3,3.1s.5.8,1,1.1c.4.3,1.1.4,1.9.4.6-.1,1.4-.2,2.4-.3Z"></path>
    <path class="st0" d="M588.6,271v-33.1h5.1v5c1.3-2.3,2.5-3.9,3.6-4.6,1.1-.7,2.3-1.1,3.6-1.1,1.9,0,3.8.6,5.8,1.8l-1.9,5.2c-1.4-.8-2.7-1.2-4.1-1.2s-2.3.4-3.3,1.1-1.7,1.8-2.1,3.1c-.6,2-.9,4.2-.9,6.6v17.2h-5.8Z"></path>
    <path class="st0" d="M610,231.7v-6.5h5.6v6.5h-5.6ZM610,271v-33.1h5.6v33.1h-5.6Z"></path>
    <path class="st0" d="M646.8,260.3l5.8.7c-.9,3.4-2.6,6-5.1,7.9s-5.6,2.8-9.5,2.8-8.7-1.5-11.5-4.5-4.3-7.2-4.3-12.6,1.4-9.9,4.3-13,6.6-4.6,11.2-4.6,8,1.5,10.9,4.5,4.2,7.3,4.2,12.7v1.5h-24.7c.2,3.6,1.2,6.4,3.1,8.4,1.9,1.9,4.2,2.9,6.9,2.9s3.8-.5,5.3-1.6c1.4-1,2.6-2.7,3.4-5.1ZM628.4,251.3h18.5c-.2-2.8-1-4.9-2.1-6.3-1.8-2.2-4.1-3.2-7-3.2s-4.7.9-6.5,2.6c-1.7,1.7-2.7,4-2.9,6.9Z"></path>
    <path class="st0" d="M664.9,271h-5.2v-45.7h5.6v16.3c2.4-3,5.4-4.5,9.1-4.5s4,.4,5.8,1.2,3.3,2,4.5,3.5,2.1,3.3,2.8,5.4c.7,2.1,1,4.3,1,6.7,0,5.7-1.4,10.1-4.2,13.2s-6.2,4.6-10.1,4.6-7-1.6-9.2-4.9v4.2h0ZM664.8,254.2c0,4,.5,6.8,1.6,8.6,1.8,2.9,4.2,4.3,7.2,4.3s4.6-1.1,6.4-3.2c1.8-2.1,2.7-5.3,2.7-9.5s-.9-7.5-2.6-9.6c-1.7-2.1-3.8-3.1-6.2-3.1s-4.6,1.1-6.4,3.2c-1.8,2.2-2.7,5.2-2.7,9.3Z"></path>
  </g>
</svg>
